<mxfile host="app.diagrams.net" modified="2023-09-27T22:40:27.770Z" agent="Mozilla/5.0 (Windows NT 10.0; Win64; x64) AppleWebKit/537.36 (KHTML, like Gecko) Chrome/116.0.0.0 Safari/537.36" etag="dg2RH_9YN9A3dUjubUwv" version="21.8.2" type="github">
  <diagram name="Página-1" id="sUAvk8ibwiXFDRN5bp4g">
    <mxGraphModel dx="1434" dy="853" grid="1" gridSize="10" guides="1" tooltips="1" connect="1" arrows="1" fold="1" page="1" pageScale="1" pageWidth="827" pageHeight="1169" math="0" shadow="0">
      <root>
        <mxCell id="0" />
        <mxCell id="1" parent="0" />
        <mxCell id="FwpViux2YUZAJZBfCD7D-1" value="" style="shape=table;startSize=0;container=1;collapsible=0;childLayout=tableLayout;fontSize=16;movable=1;resizable=1;rotatable=1;deletable=1;editable=1;locked=0;connectable=1;" parent="1" vertex="1">
          <mxGeometry x="40" y="40" width="640" height="520" as="geometry" />
        </mxCell>
        <mxCell id="FwpViux2YUZAJZBfCD7D-33" style="shape=tableRow;horizontal=0;startSize=0;swimlaneHead=0;swimlaneBody=0;strokeColor=inherit;top=0;left=0;bottom=0;right=0;collapsible=0;dropTarget=0;fillColor=none;points=[[0,0.5],[1,0.5]];portConstraint=eastwest;fontSize=16;movable=1;resizable=1;rotatable=1;deletable=1;editable=1;locked=0;connectable=1;" parent="FwpViux2YUZAJZBfCD7D-1" vertex="1">
          <mxGeometry width="640" height="53" as="geometry" />
        </mxCell>
        <mxCell id="FwpViux2YUZAJZBfCD7D-34" value="Versão" style="shape=partialRectangle;html=1;whiteSpace=wrap;connectable=0;strokeColor=inherit;overflow=hidden;fillColor=none;top=0;left=0;bottom=0;right=0;pointerEvents=1;fontSize=16;align=left;verticalAlign=top;movable=0;resizable=0;rotatable=0;deletable=0;editable=0;locked=1;" parent="FwpViux2YUZAJZBfCD7D-33" vertex="1">
          <mxGeometry width="200" height="53" as="geometry">
            <mxRectangle width="200" height="53" as="alternateBounds" />
          </mxGeometry>
        </mxCell>
        <mxCell id="FwpViux2YUZAJZBfCD7D-35" value="1" style="shape=partialRectangle;html=1;whiteSpace=wrap;connectable=0;strokeColor=inherit;overflow=hidden;fillColor=none;top=0;left=0;bottom=0;right=0;pointerEvents=1;fontSize=16;align=left;verticalAlign=top;movable=0;resizable=0;rotatable=0;deletable=0;editable=0;locked=1;" parent="FwpViux2YUZAJZBfCD7D-33" vertex="1">
          <mxGeometry x="200" width="440" height="53" as="geometry">
            <mxRectangle width="440" height="53" as="alternateBounds" />
          </mxGeometry>
        </mxCell>
        <mxCell id="FwpViux2YUZAJZBfCD7D-23" style="shape=tableRow;horizontal=0;startSize=0;swimlaneHead=0;swimlaneBody=0;strokeColor=inherit;top=0;left=0;bottom=0;right=0;collapsible=0;dropTarget=0;fillColor=none;points=[[0,0.5],[1,0.5]];portConstraint=eastwest;fontSize=16;movable=1;resizable=1;rotatable=1;deletable=1;editable=1;locked=0;connectable=1;" parent="FwpViux2YUZAJZBfCD7D-1" vertex="1">
          <mxGeometry y="53" width="640" height="53" as="geometry" />
        </mxCell>
        <mxCell id="FwpViux2YUZAJZBfCD7D-24" value="Identificador" style="shape=partialRectangle;html=1;whiteSpace=wrap;connectable=0;strokeColor=inherit;overflow=hidden;fillColor=none;top=0;left=0;bottom=0;right=0;pointerEvents=1;fontSize=16;align=left;verticalAlign=top;movable=0;resizable=0;rotatable=0;deletable=0;editable=0;locked=1;" parent="FwpViux2YUZAJZBfCD7D-23" vertex="1">
          <mxGeometry width="200" height="53" as="geometry">
            <mxRectangle width="200" height="53" as="alternateBounds" />
          </mxGeometry>
        </mxCell>
        <mxCell id="FwpViux2YUZAJZBfCD7D-25" value="RF001" style="shape=partialRectangle;html=1;whiteSpace=wrap;connectable=0;strokeColor=inherit;overflow=hidden;fillColor=none;top=0;left=0;bottom=0;right=0;pointerEvents=1;fontSize=16;align=left;verticalAlign=top;movable=0;resizable=0;rotatable=0;deletable=0;editable=0;locked=1;" parent="FwpViux2YUZAJZBfCD7D-23" vertex="1">
          <mxGeometry x="200" width="440" height="53" as="geometry">
            <mxRectangle width="440" height="53" as="alternateBounds" />
          </mxGeometry>
        </mxCell>
        <mxCell id="FwpViux2YUZAJZBfCD7D-20" style="shape=tableRow;horizontal=0;startSize=0;swimlaneHead=0;swimlaneBody=0;strokeColor=inherit;top=0;left=0;bottom=0;right=0;collapsible=0;dropTarget=0;fillColor=none;points=[[0,0.5],[1,0.5]];portConstraint=eastwest;fontSize=16;movable=1;resizable=1;rotatable=1;deletable=1;editable=1;locked=0;connectable=1;" parent="FwpViux2YUZAJZBfCD7D-1" vertex="1">
          <mxGeometry y="106" width="640" height="53" as="geometry" />
        </mxCell>
        <mxCell id="FwpViux2YUZAJZBfCD7D-21" value="Nome" style="shape=partialRectangle;html=1;whiteSpace=wrap;connectable=0;strokeColor=inherit;overflow=hidden;fillColor=none;top=0;left=0;bottom=0;right=0;pointerEvents=1;fontSize=16;align=left;verticalAlign=top;movable=0;resizable=0;rotatable=0;deletable=0;editable=0;locked=1;" parent="FwpViux2YUZAJZBfCD7D-20" vertex="1">
          <mxGeometry width="200" height="53" as="geometry">
            <mxRectangle width="200" height="53" as="alternateBounds" />
          </mxGeometry>
        </mxCell>
        <mxCell id="FwpViux2YUZAJZBfCD7D-22" value="Cadastrar Pão" style="shape=partialRectangle;html=1;whiteSpace=wrap;connectable=1;strokeColor=inherit;overflow=hidden;fillColor=none;top=0;left=0;bottom=0;right=0;pointerEvents=1;fontSize=16;align=left;verticalAlign=top;movable=1;resizable=1;rotatable=1;deletable=1;editable=1;locked=0;" parent="FwpViux2YUZAJZBfCD7D-20" vertex="1">
          <mxGeometry x="200" width="440" height="53" as="geometry">
            <mxRectangle width="440" height="53" as="alternateBounds" />
          </mxGeometry>
        </mxCell>
        <mxCell id="FwpViux2YUZAJZBfCD7D-17" style="shape=tableRow;horizontal=0;startSize=0;swimlaneHead=0;swimlaneBody=0;strokeColor=inherit;top=0;left=0;bottom=0;right=0;collapsible=0;dropTarget=0;fillColor=none;points=[[0,0.5],[1,0.5]];portConstraint=eastwest;fontSize=16;movable=1;resizable=1;rotatable=1;deletable=1;editable=1;locked=0;connectable=1;" parent="FwpViux2YUZAJZBfCD7D-1" vertex="1">
          <mxGeometry y="159" width="640" height="53" as="geometry" />
        </mxCell>
        <mxCell id="FwpViux2YUZAJZBfCD7D-18" value="Módulo" style="shape=partialRectangle;html=1;whiteSpace=wrap;connectable=0;strokeColor=inherit;overflow=hidden;fillColor=none;top=0;left=0;bottom=0;right=0;pointerEvents=1;fontSize=16;align=left;verticalAlign=top;movable=0;resizable=0;rotatable=0;deletable=0;editable=0;locked=1;" parent="FwpViux2YUZAJZBfCD7D-17" vertex="1">
          <mxGeometry width="200" height="53" as="geometry">
            <mxRectangle width="200" height="53" as="alternateBounds" />
          </mxGeometry>
        </mxCell>
        <mxCell id="FwpViux2YUZAJZBfCD7D-19" value="&lt;span style=&quot;margin: 0px; padding: 0px; user-select: text; -webkit-user-drag: none; -webkit-tap-highlight-color: transparent;&quot; class=&quot;NormalTextRun SCXW47150359 BCX8&quot;&gt;Cadastrar&lt;/span&gt;&lt;span style=&quot;margin: 0px; padding: 0px; user-select: text; -webkit-user-drag: none; -webkit-tap-highlight-color: transparent; background-color: rgb(255, 255, 255); font-size: 11pt; line-height: 19.425px; font-family: Calibri, Calibri_EmbeddedFont, Calibri_MSFontService, sans-serif; font-variant-ligatures: none !important;&quot; class=&quot;TextRun SCXW47150359 BCX8&quot; lang=&quot;PT-BR&quot; data-contrast=&quot;auto&quot;&gt;&lt;/span&gt;&lt;span style=&quot;margin: 0px; padding: 0px; user-select: text; -webkit-user-drag: none; -webkit-tap-highlight-color: transparent; background-color: rgb(255, 255, 255); font-size: 11pt; line-height: 19.425px; font-family: Calibri, Calibri_EmbeddedFont, Calibri_MSFontService, sans-serif;&quot; data-ccp-props=&quot;{&amp;quot;201341983&amp;quot;:0,&amp;quot;335559740&amp;quot;:259}&quot; class=&quot;EOP SCXW47150359 BCX8&quot;&gt;&amp;nbsp;&lt;/span&gt;" style="shape=partialRectangle;html=1;whiteSpace=wrap;connectable=0;strokeColor=inherit;overflow=hidden;fillColor=none;top=0;left=0;bottom=0;right=0;pointerEvents=1;fontSize=16;align=left;verticalAlign=top;movable=0;resizable=0;rotatable=0;deletable=0;editable=0;locked=1;" parent="FwpViux2YUZAJZBfCD7D-17" vertex="1">
          <mxGeometry x="200" width="440" height="53" as="geometry">
            <mxRectangle width="440" height="53" as="alternateBounds" />
          </mxGeometry>
        </mxCell>
        <mxCell id="FwpViux2YUZAJZBfCD7D-14" style="shape=tableRow;horizontal=0;startSize=0;swimlaneHead=0;swimlaneBody=0;strokeColor=inherit;top=0;left=0;bottom=0;right=0;collapsible=0;dropTarget=0;fillColor=none;points=[[0,0.5],[1,0.5]];portConstraint=eastwest;fontSize=16;movable=1;resizable=1;rotatable=1;deletable=1;editable=1;locked=0;connectable=1;" parent="FwpViux2YUZAJZBfCD7D-1" vertex="1">
          <mxGeometry y="212" width="640" height="52" as="geometry" />
        </mxCell>
        <mxCell id="FwpViux2YUZAJZBfCD7D-15" value="Data da criação" style="shape=partialRectangle;html=1;whiteSpace=wrap;connectable=0;strokeColor=inherit;overflow=hidden;fillColor=none;top=0;left=0;bottom=0;right=0;pointerEvents=1;fontSize=16;align=left;verticalAlign=top;movable=0;resizable=0;rotatable=0;deletable=0;editable=0;locked=1;" parent="FwpViux2YUZAJZBfCD7D-14" vertex="1">
          <mxGeometry width="200" height="52" as="geometry">
            <mxRectangle width="200" height="52" as="alternateBounds" />
          </mxGeometry>
        </mxCell>
        <mxCell id="FwpViux2YUZAJZBfCD7D-16" value="18/08/2023" style="shape=partialRectangle;html=1;whiteSpace=wrap;connectable=0;strokeColor=inherit;overflow=hidden;fillColor=none;top=0;left=0;bottom=0;right=0;pointerEvents=1;fontSize=16;align=left;movable=0;resizable=0;rotatable=0;deletable=0;editable=0;locked=1;" parent="FwpViux2YUZAJZBfCD7D-14" vertex="1">
          <mxGeometry x="200" width="440" height="52" as="geometry">
            <mxRectangle width="440" height="52" as="alternateBounds" />
          </mxGeometry>
        </mxCell>
        <mxCell id="FwpViux2YUZAJZBfCD7D-2" value="" style="shape=tableRow;horizontal=0;startSize=0;swimlaneHead=0;swimlaneBody=0;strokeColor=inherit;top=0;left=0;bottom=0;right=0;collapsible=0;dropTarget=0;fillColor=none;points=[[0,0.5],[1,0.5]];portConstraint=eastwest;fontSize=16;movable=1;resizable=1;rotatable=1;deletable=1;editable=1;locked=0;connectable=1;" parent="FwpViux2YUZAJZBfCD7D-1" vertex="1">
          <mxGeometry y="264" width="640" height="53" as="geometry" />
        </mxCell>
        <mxCell id="FwpViux2YUZAJZBfCD7D-3" value="Data da última alteração" style="shape=partialRectangle;html=1;whiteSpace=wrap;connectable=0;strokeColor=inherit;overflow=hidden;fillColor=none;top=0;left=0;bottom=0;right=0;pointerEvents=1;fontSize=16;align=left;verticalAlign=top;movable=0;resizable=0;rotatable=0;deletable=0;editable=0;locked=1;" parent="FwpViux2YUZAJZBfCD7D-2" vertex="1">
          <mxGeometry width="200" height="53" as="geometry">
            <mxRectangle width="200" height="53" as="alternateBounds" />
          </mxGeometry>
        </mxCell>
        <mxCell id="FwpViux2YUZAJZBfCD7D-4" value="" style="shape=partialRectangle;html=1;whiteSpace=wrap;connectable=0;strokeColor=inherit;overflow=hidden;fillColor=none;top=0;left=0;bottom=0;right=0;pointerEvents=1;fontSize=16;movable=0;resizable=0;rotatable=0;deletable=0;editable=0;locked=1;" parent="FwpViux2YUZAJZBfCD7D-2" vertex="1">
          <mxGeometry x="200" width="440" height="53" as="geometry">
            <mxRectangle width="440" height="53" as="alternateBounds" />
          </mxGeometry>
        </mxCell>
        <mxCell id="FwpViux2YUZAJZBfCD7D-6" value="" style="shape=tableRow;horizontal=0;startSize=0;swimlaneHead=0;swimlaneBody=0;strokeColor=inherit;top=0;left=0;bottom=0;right=0;collapsible=0;dropTarget=0;fillColor=none;points=[[0,0.5],[1,0.5]];portConstraint=eastwest;fontSize=16;movable=1;resizable=1;rotatable=1;deletable=1;editable=1;locked=0;connectable=1;" parent="FwpViux2YUZAJZBfCD7D-1" vertex="1">
          <mxGeometry y="317" width="640" height="53" as="geometry" />
        </mxCell>
        <mxCell id="FwpViux2YUZAJZBfCD7D-7" value="Autor&amp;nbsp;" style="shape=partialRectangle;html=1;whiteSpace=wrap;connectable=0;strokeColor=inherit;overflow=hidden;fillColor=none;top=0;left=0;bottom=0;right=0;pointerEvents=1;fontSize=16;align=left;verticalAlign=top;movable=0;resizable=0;rotatable=0;deletable=0;editable=0;locked=1;" parent="FwpViux2YUZAJZBfCD7D-6" vertex="1">
          <mxGeometry width="200" height="53" as="geometry">
            <mxRectangle width="200" height="53" as="alternateBounds" />
          </mxGeometry>
        </mxCell>
        <mxCell id="FwpViux2YUZAJZBfCD7D-8" value="&#xa;&lt;span style=&quot;color: rgb(0, 0, 0); font-family: Helvetica; font-size: 16px; font-style: normal; font-variant-ligatures: normal; font-variant-caps: normal; font-weight: 400; letter-spacing: normal; orphans: 2; text-indent: 0px; text-transform: none; widows: 2; word-spacing: 0px; -webkit-text-stroke-width: 0px; background-color: rgb(251, 251, 251); text-decoration-thickness: initial; text-decoration-style: initial; text-decoration-color: initial; float: none; display: inline !important;&quot;&gt;Leonardo Romeiro&lt;/span&gt;&#xa;&#xa;" style="shape=partialRectangle;html=1;whiteSpace=wrap;connectable=0;strokeColor=inherit;overflow=hidden;fillColor=none;top=0;left=0;bottom=0;right=0;pointerEvents=1;fontSize=16;align=left;movable=0;resizable=0;rotatable=0;deletable=0;editable=0;locked=1;" parent="FwpViux2YUZAJZBfCD7D-6" vertex="1">
          <mxGeometry x="200" width="440" height="53" as="geometry">
            <mxRectangle width="440" height="53" as="alternateBounds" />
          </mxGeometry>
        </mxCell>
        <mxCell id="FwpViux2YUZAJZBfCD7D-10" value="" style="shape=tableRow;horizontal=0;startSize=0;swimlaneHead=0;swimlaneBody=0;strokeColor=inherit;top=0;left=0;bottom=0;right=0;collapsible=0;dropTarget=0;fillColor=none;points=[[0,0.5],[1,0.5]];portConstraint=eastwest;fontSize=16;movable=1;resizable=1;rotatable=1;deletable=1;editable=1;locked=0;connectable=1;" parent="FwpViux2YUZAJZBfCD7D-1" vertex="1">
          <mxGeometry y="370" width="640" height="150" as="geometry" />
        </mxCell>
        <mxCell id="FwpViux2YUZAJZBfCD7D-11" value="Descrição" style="shape=partialRectangle;html=1;whiteSpace=wrap;connectable=0;strokeColor=inherit;overflow=hidden;fillColor=none;top=0;left=0;bottom=0;right=0;pointerEvents=1;fontSize=16;align=left;verticalAlign=top;movable=0;resizable=0;rotatable=0;deletable=0;editable=0;locked=1;" parent="FwpViux2YUZAJZBfCD7D-10" vertex="1">
          <mxGeometry width="200" height="150" as="geometry">
            <mxRectangle width="200" height="150" as="alternateBounds" />
          </mxGeometry>
        </mxCell>
        <mxCell id="FwpViux2YUZAJZBfCD7D-12" value="O cadastro de associados deverá ser feito através do armazenamento de suas informações básicas:&lt;br&gt;&lt;br&gt;&amp;nbsp;- Nome do produto&lt;br&gt;&amp;nbsp;- Descrição&lt;br&gt;&amp;nbsp;- Imagem" style="shape=partialRectangle;html=1;whiteSpace=wrap;connectable=1;strokeColor=inherit;overflow=hidden;fillColor=none;top=0;left=0;bottom=0;right=0;pointerEvents=1;fontSize=16;align=left;verticalAlign=top;movable=1;resizable=1;rotatable=1;deletable=1;editable=1;locked=0;" parent="FwpViux2YUZAJZBfCD7D-10" vertex="1">
          <mxGeometry x="200" width="440" height="150" as="geometry">
            <mxRectangle width="440" height="150" as="alternateBounds" />
          </mxGeometry>
        </mxCell>
        <mxCell id="0z6euQ2ktUDiDJCqqF_y-1" value="" style="shape=table;startSize=0;container=1;collapsible=0;childLayout=tableLayout;fontSize=16;movable=1;resizable=1;rotatable=1;deletable=1;editable=1;locked=0;connectable=1;" parent="1" vertex="1">
          <mxGeometry x="40" y="1290" width="640" height="580" as="geometry" />
        </mxCell>
        <mxCell id="0z6euQ2ktUDiDJCqqF_y-2" style="shape=tableRow;horizontal=0;startSize=0;swimlaneHead=0;swimlaneBody=0;strokeColor=inherit;top=0;left=0;bottom=0;right=0;collapsible=0;dropTarget=0;fillColor=none;points=[[0,0.5],[1,0.5]];portConstraint=eastwest;fontSize=16;movable=0;resizable=0;rotatable=0;deletable=0;editable=0;locked=1;connectable=0;" parent="0z6euQ2ktUDiDJCqqF_y-1" vertex="1">
          <mxGeometry width="640" height="59" as="geometry" />
        </mxCell>
        <mxCell id="0z6euQ2ktUDiDJCqqF_y-3" value="Versão" style="shape=partialRectangle;html=1;whiteSpace=wrap;connectable=0;strokeColor=inherit;overflow=hidden;fillColor=none;top=0;left=0;bottom=0;right=0;pointerEvents=1;fontSize=16;align=left;verticalAlign=top;movable=0;resizable=0;rotatable=0;deletable=0;editable=0;locked=1;" parent="0z6euQ2ktUDiDJCqqF_y-2" vertex="1">
          <mxGeometry width="200" height="59" as="geometry">
            <mxRectangle width="200" height="59" as="alternateBounds" />
          </mxGeometry>
        </mxCell>
        <mxCell id="0z6euQ2ktUDiDJCqqF_y-4" value="1" style="shape=partialRectangle;html=1;whiteSpace=wrap;connectable=1;strokeColor=inherit;overflow=hidden;fillColor=none;top=0;left=0;bottom=0;right=0;pointerEvents=1;fontSize=16;align=left;verticalAlign=top;movable=1;resizable=1;rotatable=1;deletable=1;editable=1;locked=0;" parent="0z6euQ2ktUDiDJCqqF_y-2" vertex="1">
          <mxGeometry x="200" width="440" height="59" as="geometry">
            <mxRectangle width="440" height="59" as="alternateBounds" />
          </mxGeometry>
        </mxCell>
        <mxCell id="0z6euQ2ktUDiDJCqqF_y-5" style="shape=tableRow;horizontal=0;startSize=0;swimlaneHead=0;swimlaneBody=0;strokeColor=inherit;top=0;left=0;bottom=0;right=0;collapsible=0;dropTarget=0;fillColor=none;points=[[0,0.5],[1,0.5]];portConstraint=eastwest;fontSize=16;movable=1;resizable=1;rotatable=1;deletable=1;editable=1;locked=0;connectable=1;" parent="0z6euQ2ktUDiDJCqqF_y-1" vertex="1">
          <mxGeometry y="59" width="640" height="59" as="geometry" />
        </mxCell>
        <mxCell id="0z6euQ2ktUDiDJCqqF_y-6" value="Identificador" style="shape=partialRectangle;html=1;whiteSpace=wrap;connectable=1;strokeColor=inherit;overflow=hidden;fillColor=none;top=0;left=0;bottom=0;right=0;pointerEvents=1;fontSize=16;align=left;verticalAlign=top;movable=1;resizable=1;rotatable=1;deletable=1;editable=1;locked=0;" parent="0z6euQ2ktUDiDJCqqF_y-5" vertex="1">
          <mxGeometry width="200" height="59" as="geometry">
            <mxRectangle width="200" height="59" as="alternateBounds" />
          </mxGeometry>
        </mxCell>
        <mxCell id="0z6euQ2ktUDiDJCqqF_y-7" value="RF003" style="shape=partialRectangle;html=1;whiteSpace=wrap;connectable=1;strokeColor=inherit;overflow=hidden;fillColor=none;top=0;left=0;bottom=0;right=0;pointerEvents=1;fontSize=16;align=left;verticalAlign=top;movable=1;resizable=1;rotatable=1;deletable=1;editable=1;locked=0;" parent="0z6euQ2ktUDiDJCqqF_y-5" vertex="1">
          <mxGeometry x="200" width="440" height="59" as="geometry">
            <mxRectangle width="440" height="59" as="alternateBounds" />
          </mxGeometry>
        </mxCell>
        <mxCell id="0z6euQ2ktUDiDJCqqF_y-8" style="shape=tableRow;horizontal=0;startSize=0;swimlaneHead=0;swimlaneBody=0;strokeColor=inherit;top=0;left=0;bottom=0;right=0;collapsible=0;dropTarget=0;fillColor=none;points=[[0,0.5],[1,0.5]];portConstraint=eastwest;fontSize=16;movable=1;resizable=1;rotatable=1;deletable=1;editable=1;locked=0;connectable=1;" parent="0z6euQ2ktUDiDJCqqF_y-1" vertex="1">
          <mxGeometry y="118" width="640" height="59" as="geometry" />
        </mxCell>
        <mxCell id="0z6euQ2ktUDiDJCqqF_y-9" value="Nome" style="shape=partialRectangle;html=1;whiteSpace=wrap;connectable=0;strokeColor=inherit;overflow=hidden;fillColor=none;top=0;left=0;bottom=0;right=0;pointerEvents=1;fontSize=16;align=left;verticalAlign=top;movable=0;resizable=0;rotatable=0;deletable=0;editable=0;locked=1;" parent="0z6euQ2ktUDiDJCqqF_y-8" vertex="1">
          <mxGeometry width="200" height="59" as="geometry">
            <mxRectangle width="200" height="59" as="alternateBounds" />
          </mxGeometry>
        </mxCell>
        <mxCell id="0z6euQ2ktUDiDJCqqF_y-10" value="Cadastrar Cliente&amp;nbsp;" style="shape=partialRectangle;html=1;whiteSpace=wrap;connectable=1;strokeColor=inherit;overflow=hidden;fillColor=none;top=0;left=0;bottom=0;right=0;pointerEvents=1;fontSize=16;align=left;verticalAlign=top;movable=1;resizable=1;rotatable=1;deletable=1;editable=1;locked=0;" parent="0z6euQ2ktUDiDJCqqF_y-8" vertex="1">
          <mxGeometry x="200" width="440" height="59" as="geometry">
            <mxRectangle width="440" height="59" as="alternateBounds" />
          </mxGeometry>
        </mxCell>
        <mxCell id="0z6euQ2ktUDiDJCqqF_y-11" style="shape=tableRow;horizontal=0;startSize=0;swimlaneHead=0;swimlaneBody=0;strokeColor=inherit;top=0;left=0;bottom=0;right=0;collapsible=0;dropTarget=0;fillColor=none;points=[[0,0.5],[1,0.5]];portConstraint=eastwest;fontSize=16;movable=0;resizable=0;rotatable=0;deletable=0;editable=0;locked=1;connectable=0;" parent="0z6euQ2ktUDiDJCqqF_y-1" vertex="1">
          <mxGeometry y="177" width="640" height="59" as="geometry" />
        </mxCell>
        <mxCell id="0z6euQ2ktUDiDJCqqF_y-12" value="Módulo" style="shape=partialRectangle;html=1;whiteSpace=wrap;connectable=0;strokeColor=inherit;overflow=hidden;fillColor=none;top=0;left=0;bottom=0;right=0;pointerEvents=1;fontSize=16;align=left;verticalAlign=top;movable=0;resizable=0;rotatable=0;deletable=0;editable=0;locked=1;" parent="0z6euQ2ktUDiDJCqqF_y-11" vertex="1">
          <mxGeometry width="200" height="59" as="geometry">
            <mxRectangle width="200" height="59" as="alternateBounds" />
          </mxGeometry>
        </mxCell>
        <mxCell id="0z6euQ2ktUDiDJCqqF_y-13" value="&lt;span style=&quot;margin: 0px; padding: 0px; user-select: text; -webkit-user-drag: none; -webkit-tap-highlight-color: transparent;&quot; class=&quot;NormalTextRun SCXW47150359 BCX8&quot;&gt;Cadastrar&lt;/span&gt;&lt;span style=&quot;margin: 0px; padding: 0px; user-select: text; -webkit-user-drag: none; -webkit-tap-highlight-color: transparent; background-color: rgb(255, 255, 255); font-size: 11pt; line-height: 19.425px; font-family: Calibri, Calibri_EmbeddedFont, Calibri_MSFontService, sans-serif; font-variant-ligatures: none !important;&quot; class=&quot;TextRun SCXW47150359 BCX8&quot; lang=&quot;PT-BR&quot; data-contrast=&quot;auto&quot;&gt;&lt;/span&gt;&lt;span style=&quot;margin: 0px; padding: 0px; user-select: text; -webkit-user-drag: none; -webkit-tap-highlight-color: transparent; background-color: rgb(255, 255, 255); font-size: 11pt; line-height: 19.425px; font-family: Calibri, Calibri_EmbeddedFont, Calibri_MSFontService, sans-serif;&quot; data-ccp-props=&quot;{&amp;quot;201341983&amp;quot;:0,&amp;quot;335559740&amp;quot;:259}&quot; class=&quot;EOP SCXW47150359 BCX8&quot;&gt;&amp;nbsp;&lt;/span&gt;" style="shape=partialRectangle;html=1;whiteSpace=wrap;connectable=0;strokeColor=inherit;overflow=hidden;fillColor=none;top=0;left=0;bottom=0;right=0;pointerEvents=1;fontSize=16;align=left;verticalAlign=top;movable=0;resizable=0;rotatable=0;deletable=0;editable=0;locked=1;" parent="0z6euQ2ktUDiDJCqqF_y-11" vertex="1">
          <mxGeometry x="200" width="440" height="59" as="geometry">
            <mxRectangle width="440" height="59" as="alternateBounds" />
          </mxGeometry>
        </mxCell>
        <mxCell id="0z6euQ2ktUDiDJCqqF_y-14" style="shape=tableRow;horizontal=0;startSize=0;swimlaneHead=0;swimlaneBody=0;strokeColor=inherit;top=0;left=0;bottom=0;right=0;collapsible=0;dropTarget=0;fillColor=none;points=[[0,0.5],[1,0.5]];portConstraint=eastwest;fontSize=16;movable=1;resizable=1;rotatable=1;deletable=1;editable=1;locked=0;connectable=1;" parent="0z6euQ2ktUDiDJCqqF_y-1" vertex="1">
          <mxGeometry y="236" width="640" height="58" as="geometry" />
        </mxCell>
        <mxCell id="0z6euQ2ktUDiDJCqqF_y-15" value="Data da criação" style="shape=partialRectangle;html=1;whiteSpace=wrap;connectable=0;strokeColor=inherit;overflow=hidden;fillColor=none;top=0;left=0;bottom=0;right=0;pointerEvents=1;fontSize=16;align=left;verticalAlign=top;movable=0;resizable=0;rotatable=0;deletable=0;editable=0;locked=1;" parent="0z6euQ2ktUDiDJCqqF_y-14" vertex="1">
          <mxGeometry width="200" height="58" as="geometry">
            <mxRectangle width="200" height="58" as="alternateBounds" />
          </mxGeometry>
        </mxCell>
        <mxCell id="0z6euQ2ktUDiDJCqqF_y-16" value="25/08/2023" style="shape=partialRectangle;html=1;whiteSpace=wrap;connectable=1;strokeColor=inherit;overflow=hidden;fillColor=none;top=0;left=0;bottom=0;right=0;pointerEvents=1;fontSize=16;align=left;movable=1;resizable=1;rotatable=1;deletable=1;editable=1;locked=0;" parent="0z6euQ2ktUDiDJCqqF_y-14" vertex="1">
          <mxGeometry x="200" width="440" height="58" as="geometry">
            <mxRectangle width="440" height="58" as="alternateBounds" />
          </mxGeometry>
        </mxCell>
        <mxCell id="0z6euQ2ktUDiDJCqqF_y-17" value="" style="shape=tableRow;horizontal=0;startSize=0;swimlaneHead=0;swimlaneBody=0;strokeColor=inherit;top=0;left=0;bottom=0;right=0;collapsible=0;dropTarget=0;fillColor=none;points=[[0,0.5],[1,0.5]];portConstraint=eastwest;fontSize=16;movable=1;resizable=1;rotatable=1;deletable=1;editable=1;locked=0;connectable=1;" parent="0z6euQ2ktUDiDJCqqF_y-1" vertex="1">
          <mxGeometry y="294" width="640" height="60" as="geometry" />
        </mxCell>
        <mxCell id="0z6euQ2ktUDiDJCqqF_y-18" value="Data da última alteração" style="shape=partialRectangle;html=1;whiteSpace=wrap;connectable=1;strokeColor=inherit;overflow=hidden;fillColor=none;top=0;left=0;bottom=0;right=0;pointerEvents=1;fontSize=16;align=left;verticalAlign=top;movable=1;resizable=1;rotatable=1;deletable=1;editable=1;locked=0;" parent="0z6euQ2ktUDiDJCqqF_y-17" vertex="1">
          <mxGeometry width="200" height="60" as="geometry">
            <mxRectangle width="200" height="60" as="alternateBounds" />
          </mxGeometry>
        </mxCell>
        <mxCell id="0z6euQ2ktUDiDJCqqF_y-19" value="25/082023" style="shape=partialRectangle;html=1;whiteSpace=wrap;connectable=1;strokeColor=inherit;overflow=hidden;fillColor=none;top=0;left=0;bottom=0;right=0;pointerEvents=1;fontSize=16;movable=1;resizable=1;rotatable=1;deletable=1;editable=1;locked=0;align=left;" parent="0z6euQ2ktUDiDJCqqF_y-17" vertex="1">
          <mxGeometry x="200" width="440" height="60" as="geometry">
            <mxRectangle width="440" height="60" as="alternateBounds" />
          </mxGeometry>
        </mxCell>
        <mxCell id="0z6euQ2ktUDiDJCqqF_y-20" value="" style="shape=tableRow;horizontal=0;startSize=0;swimlaneHead=0;swimlaneBody=0;strokeColor=inherit;top=0;left=0;bottom=0;right=0;collapsible=0;dropTarget=0;fillColor=none;points=[[0,0.5],[1,0.5]];portConstraint=eastwest;fontSize=16;movable=1;resizable=1;rotatable=1;deletable=1;editable=1;locked=0;connectable=1;" parent="0z6euQ2ktUDiDJCqqF_y-1" vertex="1">
          <mxGeometry y="354" width="640" height="59" as="geometry" />
        </mxCell>
        <mxCell id="0z6euQ2ktUDiDJCqqF_y-21" value="Autor&amp;nbsp;" style="shape=partialRectangle;html=1;whiteSpace=wrap;connectable=0;strokeColor=inherit;overflow=hidden;fillColor=none;top=0;left=0;bottom=0;right=0;pointerEvents=1;fontSize=16;align=left;verticalAlign=top;movable=0;resizable=0;rotatable=0;deletable=0;editable=0;locked=1;" parent="0z6euQ2ktUDiDJCqqF_y-20" vertex="1">
          <mxGeometry width="200" height="59" as="geometry">
            <mxRectangle width="200" height="59" as="alternateBounds" />
          </mxGeometry>
        </mxCell>
        <mxCell id="0z6euQ2ktUDiDJCqqF_y-22" value="Luan Pacceli de moura" style="shape=partialRectangle;html=1;whiteSpace=wrap;connectable=1;strokeColor=inherit;overflow=hidden;fillColor=none;top=0;left=0;bottom=0;right=0;pointerEvents=1;fontSize=16;align=left;movable=1;resizable=1;rotatable=1;deletable=1;editable=1;locked=0;" parent="0z6euQ2ktUDiDJCqqF_y-20" vertex="1">
          <mxGeometry x="200" width="440" height="59" as="geometry">
            <mxRectangle width="440" height="59" as="alternateBounds" />
          </mxGeometry>
        </mxCell>
        <mxCell id="0z6euQ2ktUDiDJCqqF_y-23" value="" style="shape=tableRow;horizontal=0;startSize=0;swimlaneHead=0;swimlaneBody=0;strokeColor=inherit;top=0;left=0;bottom=0;right=0;collapsible=0;dropTarget=0;fillColor=none;points=[[0,0.5],[1,0.5]];portConstraint=eastwest;fontSize=16;movable=1;resizable=1;rotatable=1;deletable=1;editable=1;locked=0;connectable=1;" parent="0z6euQ2ktUDiDJCqqF_y-1" vertex="1">
          <mxGeometry y="413" width="640" height="167" as="geometry" />
        </mxCell>
        <mxCell id="0z6euQ2ktUDiDJCqqF_y-24" value="Descrição" style="shape=partialRectangle;html=1;whiteSpace=wrap;connectable=0;strokeColor=inherit;overflow=hidden;fillColor=none;top=0;left=0;bottom=0;right=0;pointerEvents=1;fontSize=16;align=left;verticalAlign=top;movable=0;resizable=0;rotatable=0;deletable=0;editable=0;locked=1;" parent="0z6euQ2ktUDiDJCqqF_y-23" vertex="1">
          <mxGeometry width="200" height="167" as="geometry">
            <mxRectangle width="200" height="167" as="alternateBounds" />
          </mxGeometry>
        </mxCell>
        <mxCell id="0z6euQ2ktUDiDJCqqF_y-25" value="O cadastro de associados deverá ser feito através do armazenamento de suas informações básicas:&lt;br&gt;&lt;br&gt;&amp;nbsp;- Nome do Cliente&lt;br&gt;&amp;nbsp;- Data de Nascimento&lt;br&gt;&amp;nbsp;- CPF&lt;br&gt;&amp;nbsp;- Endereço&lt;br&gt;-&amp;nbsp; &amp;nbsp;Contato&amp;nbsp;" style="shape=partialRectangle;html=1;whiteSpace=wrap;connectable=1;strokeColor=inherit;overflow=hidden;fillColor=none;top=0;left=0;bottom=0;right=0;pointerEvents=1;fontSize=16;align=left;verticalAlign=top;movable=1;resizable=1;rotatable=1;deletable=1;editable=1;locked=0;" parent="0z6euQ2ktUDiDJCqqF_y-23" vertex="1">
          <mxGeometry x="200" width="440" height="167" as="geometry">
            <mxRectangle width="440" height="167" as="alternateBounds" />
          </mxGeometry>
        </mxCell>
        <mxCell id="0z6euQ2ktUDiDJCqqF_y-26" value="" style="shape=table;startSize=0;container=1;collapsible=0;childLayout=tableLayout;fontSize=16;movable=1;resizable=1;rotatable=1;deletable=1;editable=1;locked=0;connectable=1;" parent="1" vertex="1">
          <mxGeometry x="40" y="640" width="640" height="580" as="geometry" />
        </mxCell>
        <mxCell id="0z6euQ2ktUDiDJCqqF_y-27" style="shape=tableRow;horizontal=0;startSize=0;swimlaneHead=0;swimlaneBody=0;strokeColor=inherit;top=0;left=0;bottom=0;right=0;collapsible=0;dropTarget=0;fillColor=none;points=[[0,0.5],[1,0.5]];portConstraint=eastwest;fontSize=16;movable=1;resizable=1;rotatable=1;deletable=1;editable=1;locked=0;connectable=1;" parent="0z6euQ2ktUDiDJCqqF_y-26" vertex="1">
          <mxGeometry width="640" height="59" as="geometry" />
        </mxCell>
        <mxCell id="0z6euQ2ktUDiDJCqqF_y-28" value="Versão" style="shape=partialRectangle;html=1;whiteSpace=wrap;connectable=0;strokeColor=inherit;overflow=hidden;fillColor=none;top=0;left=0;bottom=0;right=0;pointerEvents=1;fontSize=16;align=left;verticalAlign=top;movable=0;resizable=0;rotatable=0;deletable=0;editable=0;locked=1;" parent="0z6euQ2ktUDiDJCqqF_y-27" vertex="1">
          <mxGeometry width="200" height="59" as="geometry">
            <mxRectangle width="200" height="59" as="alternateBounds" />
          </mxGeometry>
        </mxCell>
        <mxCell id="0z6euQ2ktUDiDJCqqF_y-29" value="1" style="shape=partialRectangle;html=1;whiteSpace=wrap;connectable=1;strokeColor=inherit;overflow=hidden;fillColor=none;top=0;left=0;bottom=0;right=0;pointerEvents=1;fontSize=16;align=left;verticalAlign=top;movable=1;resizable=1;rotatable=1;deletable=1;editable=1;locked=0;" parent="0z6euQ2ktUDiDJCqqF_y-27" vertex="1">
          <mxGeometry x="200" width="440" height="59" as="geometry">
            <mxRectangle width="440" height="59" as="alternateBounds" />
          </mxGeometry>
        </mxCell>
        <mxCell id="0z6euQ2ktUDiDJCqqF_y-30" style="shape=tableRow;horizontal=0;startSize=0;swimlaneHead=0;swimlaneBody=0;strokeColor=inherit;top=0;left=0;bottom=0;right=0;collapsible=0;dropTarget=0;fillColor=none;points=[[0,0.5],[1,0.5]];portConstraint=eastwest;fontSize=16;movable=1;resizable=1;rotatable=1;deletable=1;editable=1;locked=0;connectable=1;" parent="0z6euQ2ktUDiDJCqqF_y-26" vertex="1">
          <mxGeometry y="59" width="640" height="59" as="geometry" />
        </mxCell>
        <mxCell id="0z6euQ2ktUDiDJCqqF_y-31" value="Identificador" style="shape=partialRectangle;html=1;whiteSpace=wrap;connectable=1;strokeColor=inherit;overflow=hidden;fillColor=none;top=0;left=0;bottom=0;right=0;pointerEvents=1;fontSize=16;align=left;verticalAlign=top;movable=1;resizable=1;rotatable=1;deletable=1;editable=1;locked=0;" parent="0z6euQ2ktUDiDJCqqF_y-30" vertex="1">
          <mxGeometry width="200" height="59" as="geometry">
            <mxRectangle width="200" height="59" as="alternateBounds" />
          </mxGeometry>
        </mxCell>
        <mxCell id="0z6euQ2ktUDiDJCqqF_y-32" value="RF002" style="shape=partialRectangle;html=1;whiteSpace=wrap;connectable=1;strokeColor=inherit;overflow=hidden;fillColor=none;top=0;left=0;bottom=0;right=0;pointerEvents=1;fontSize=16;align=left;verticalAlign=top;movable=1;resizable=1;rotatable=1;deletable=1;editable=1;locked=0;" parent="0z6euQ2ktUDiDJCqqF_y-30" vertex="1">
          <mxGeometry x="200" width="440" height="59" as="geometry">
            <mxRectangle width="440" height="59" as="alternateBounds" />
          </mxGeometry>
        </mxCell>
        <mxCell id="0z6euQ2ktUDiDJCqqF_y-33" style="shape=tableRow;horizontal=0;startSize=0;swimlaneHead=0;swimlaneBody=0;strokeColor=inherit;top=0;left=0;bottom=0;right=0;collapsible=0;dropTarget=0;fillColor=none;points=[[0,0.5],[1,0.5]];portConstraint=eastwest;fontSize=16;movable=1;resizable=1;rotatable=1;deletable=1;editable=1;locked=0;connectable=1;" parent="0z6euQ2ktUDiDJCqqF_y-26" vertex="1">
          <mxGeometry y="118" width="640" height="59" as="geometry" />
        </mxCell>
        <mxCell id="0z6euQ2ktUDiDJCqqF_y-34" value="Nome" style="shape=partialRectangle;html=1;whiteSpace=wrap;connectable=1;strokeColor=inherit;overflow=hidden;fillColor=none;top=0;left=0;bottom=0;right=0;pointerEvents=1;fontSize=16;align=left;verticalAlign=top;movable=1;resizable=1;rotatable=1;deletable=1;editable=1;locked=0;" parent="0z6euQ2ktUDiDJCqqF_y-33" vertex="1">
          <mxGeometry width="200" height="59" as="geometry">
            <mxRectangle width="200" height="59" as="alternateBounds" />
          </mxGeometry>
        </mxCell>
        <mxCell id="0z6euQ2ktUDiDJCqqF_y-35" value="Tipo de pão" style="shape=partialRectangle;html=1;whiteSpace=wrap;connectable=1;strokeColor=inherit;overflow=hidden;fillColor=none;top=0;left=0;bottom=0;right=0;pointerEvents=1;fontSize=16;align=left;verticalAlign=top;movable=1;resizable=1;rotatable=1;deletable=1;editable=1;locked=0;" parent="0z6euQ2ktUDiDJCqqF_y-33" vertex="1">
          <mxGeometry x="200" width="440" height="59" as="geometry">
            <mxRectangle width="440" height="59" as="alternateBounds" />
          </mxGeometry>
        </mxCell>
        <mxCell id="0z6euQ2ktUDiDJCqqF_y-36" style="shape=tableRow;horizontal=0;startSize=0;swimlaneHead=0;swimlaneBody=0;strokeColor=inherit;top=0;left=0;bottom=0;right=0;collapsible=0;dropTarget=0;fillColor=none;points=[[0,0.5],[1,0.5]];portConstraint=eastwest;fontSize=16;movable=1;resizable=1;rotatable=1;deletable=1;editable=1;locked=0;connectable=1;" parent="0z6euQ2ktUDiDJCqqF_y-26" vertex="1">
          <mxGeometry y="177" width="640" height="59" as="geometry" />
        </mxCell>
        <mxCell id="0z6euQ2ktUDiDJCqqF_y-37" value="Módulo" style="shape=partialRectangle;html=1;whiteSpace=wrap;connectable=0;strokeColor=inherit;overflow=hidden;fillColor=none;top=0;left=0;bottom=0;right=0;pointerEvents=1;fontSize=16;align=left;verticalAlign=top;movable=0;resizable=0;rotatable=0;deletable=0;editable=0;locked=1;" parent="0z6euQ2ktUDiDJCqqF_y-36" vertex="1">
          <mxGeometry width="200" height="59" as="geometry">
            <mxRectangle width="200" height="59" as="alternateBounds" />
          </mxGeometry>
        </mxCell>
        <mxCell id="0z6euQ2ktUDiDJCqqF_y-38" value="&lt;span style=&quot;margin: 0px; padding: 0px; user-select: text; -webkit-user-drag: none; -webkit-tap-highlight-color: transparent;&quot; class=&quot;NormalTextRun SCXW47150359 BCX8&quot;&gt;Cadastrar&lt;/span&gt;&lt;span style=&quot;margin: 0px; padding: 0px; user-select: text; -webkit-user-drag: none; -webkit-tap-highlight-color: transparent; background-color: rgb(255, 255, 255); font-size: 11pt; line-height: 19.425px; font-family: Calibri, Calibri_EmbeddedFont, Calibri_MSFontService, sans-serif; font-variant-ligatures: none !important;&quot; class=&quot;TextRun SCXW47150359 BCX8&quot; lang=&quot;PT-BR&quot; data-contrast=&quot;auto&quot;&gt;&lt;/span&gt;&lt;span style=&quot;margin: 0px; padding: 0px; user-select: text; -webkit-user-drag: none; -webkit-tap-highlight-color: transparent; background-color: rgb(255, 255, 255); font-size: 11pt; line-height: 19.425px; font-family: Calibri, Calibri_EmbeddedFont, Calibri_MSFontService, sans-serif;&quot; data-ccp-props=&quot;{&amp;quot;201341983&amp;quot;:0,&amp;quot;335559740&amp;quot;:259}&quot; class=&quot;EOP SCXW47150359 BCX8&quot;&gt;&amp;nbsp;&lt;/span&gt;" style="shape=partialRectangle;html=1;whiteSpace=wrap;connectable=0;strokeColor=inherit;overflow=hidden;fillColor=none;top=0;left=0;bottom=0;right=0;pointerEvents=1;fontSize=16;align=left;verticalAlign=top;movable=0;resizable=0;rotatable=0;deletable=0;editable=0;locked=1;" parent="0z6euQ2ktUDiDJCqqF_y-36" vertex="1">
          <mxGeometry x="200" width="440" height="59" as="geometry">
            <mxRectangle width="440" height="59" as="alternateBounds" />
          </mxGeometry>
        </mxCell>
        <mxCell id="0z6euQ2ktUDiDJCqqF_y-39" style="shape=tableRow;horizontal=0;startSize=0;swimlaneHead=0;swimlaneBody=0;strokeColor=inherit;top=0;left=0;bottom=0;right=0;collapsible=0;dropTarget=0;fillColor=none;points=[[0,0.5],[1,0.5]];portConstraint=eastwest;fontSize=16;movable=1;resizable=1;rotatable=1;deletable=1;editable=1;locked=0;connectable=1;" parent="0z6euQ2ktUDiDJCqqF_y-26" vertex="1">
          <mxGeometry y="236" width="640" height="58" as="geometry" />
        </mxCell>
        <mxCell id="0z6euQ2ktUDiDJCqqF_y-40" value="Data da criação" style="shape=partialRectangle;html=1;whiteSpace=wrap;connectable=1;strokeColor=inherit;overflow=hidden;fillColor=none;top=0;left=0;bottom=0;right=0;pointerEvents=1;fontSize=16;align=left;verticalAlign=top;movable=1;resizable=1;rotatable=1;deletable=1;editable=1;locked=0;" parent="0z6euQ2ktUDiDJCqqF_y-39" vertex="1">
          <mxGeometry width="200" height="58" as="geometry">
            <mxRectangle width="200" height="58" as="alternateBounds" />
          </mxGeometry>
        </mxCell>
        <mxCell id="0z6euQ2ktUDiDJCqqF_y-41" value="18/08/2023" style="shape=partialRectangle;html=1;whiteSpace=wrap;connectable=1;strokeColor=inherit;overflow=hidden;fillColor=none;top=0;left=0;bottom=0;right=0;pointerEvents=1;fontSize=16;align=left;movable=1;resizable=1;rotatable=1;deletable=1;editable=1;locked=0;" parent="0z6euQ2ktUDiDJCqqF_y-39" vertex="1">
          <mxGeometry x="200" width="440" height="58" as="geometry">
            <mxRectangle width="440" height="58" as="alternateBounds" />
          </mxGeometry>
        </mxCell>
        <mxCell id="0z6euQ2ktUDiDJCqqF_y-42" value="" style="shape=tableRow;horizontal=0;startSize=0;swimlaneHead=0;swimlaneBody=0;strokeColor=inherit;top=0;left=0;bottom=0;right=0;collapsible=0;dropTarget=0;fillColor=none;points=[[0,0.5],[1,0.5]];portConstraint=eastwest;fontSize=16;movable=1;resizable=1;rotatable=1;deletable=1;editable=1;locked=0;connectable=1;" parent="0z6euQ2ktUDiDJCqqF_y-26" vertex="1">
          <mxGeometry y="294" width="640" height="60" as="geometry" />
        </mxCell>
        <mxCell id="0z6euQ2ktUDiDJCqqF_y-43" value="Data da última alteração" style="shape=partialRectangle;html=1;whiteSpace=wrap;connectable=1;strokeColor=inherit;overflow=hidden;fillColor=none;top=0;left=0;bottom=0;right=0;pointerEvents=1;fontSize=16;align=left;verticalAlign=top;movable=1;resizable=1;rotatable=1;deletable=1;editable=1;locked=0;" parent="0z6euQ2ktUDiDJCqqF_y-42" vertex="1">
          <mxGeometry width="200" height="60" as="geometry">
            <mxRectangle width="200" height="60" as="alternateBounds" />
          </mxGeometry>
        </mxCell>
        <mxCell id="0z6euQ2ktUDiDJCqqF_y-44" value="" style="shape=partialRectangle;html=1;whiteSpace=wrap;connectable=1;strokeColor=inherit;overflow=hidden;fillColor=none;top=0;left=0;bottom=0;right=0;pointerEvents=1;fontSize=16;movable=1;resizable=1;rotatable=1;deletable=1;editable=1;locked=0;align=left;" parent="0z6euQ2ktUDiDJCqqF_y-42" vertex="1">
          <mxGeometry x="200" width="440" height="60" as="geometry">
            <mxRectangle width="440" height="60" as="alternateBounds" />
          </mxGeometry>
        </mxCell>
        <mxCell id="0z6euQ2ktUDiDJCqqF_y-45" value="" style="shape=tableRow;horizontal=0;startSize=0;swimlaneHead=0;swimlaneBody=0;strokeColor=inherit;top=0;left=0;bottom=0;right=0;collapsible=0;dropTarget=0;fillColor=none;points=[[0,0.5],[1,0.5]];portConstraint=eastwest;fontSize=16;movable=1;resizable=1;rotatable=1;deletable=1;editable=1;locked=0;connectable=1;" parent="0z6euQ2ktUDiDJCqqF_y-26" vertex="1">
          <mxGeometry y="354" width="640" height="59" as="geometry" />
        </mxCell>
        <mxCell id="0z6euQ2ktUDiDJCqqF_y-46" value="Autor&amp;nbsp;" style="shape=partialRectangle;html=1;whiteSpace=wrap;connectable=1;strokeColor=inherit;overflow=hidden;fillColor=none;top=0;left=0;bottom=0;right=0;pointerEvents=1;fontSize=16;align=left;verticalAlign=top;movable=1;resizable=1;rotatable=1;deletable=1;editable=1;locked=0;" parent="0z6euQ2ktUDiDJCqqF_y-45" vertex="1">
          <mxGeometry width="200" height="59" as="geometry">
            <mxRectangle width="200" height="59" as="alternateBounds" />
          </mxGeometry>
        </mxCell>
        <mxCell id="0z6euQ2ktUDiDJCqqF_y-47" value="Leonardo Romeiro" style="shape=partialRectangle;html=1;whiteSpace=wrap;connectable=1;strokeColor=inherit;overflow=hidden;fillColor=none;top=0;left=0;bottom=0;right=0;pointerEvents=1;fontSize=16;align=left;movable=1;resizable=1;rotatable=1;deletable=1;editable=1;locked=0;" parent="0z6euQ2ktUDiDJCqqF_y-45" vertex="1">
          <mxGeometry x="200" width="440" height="59" as="geometry">
            <mxRectangle width="440" height="59" as="alternateBounds" />
          </mxGeometry>
        </mxCell>
        <mxCell id="0z6euQ2ktUDiDJCqqF_y-48" value="" style="shape=tableRow;horizontal=0;startSize=0;swimlaneHead=0;swimlaneBody=0;strokeColor=inherit;top=0;left=0;bottom=0;right=0;collapsible=0;dropTarget=0;fillColor=none;points=[[0,0.5],[1,0.5]];portConstraint=eastwest;fontSize=16;movable=1;resizable=1;rotatable=1;deletable=1;editable=1;locked=0;connectable=1;" parent="0z6euQ2ktUDiDJCqqF_y-26" vertex="1">
          <mxGeometry y="413" width="640" height="167" as="geometry" />
        </mxCell>
        <mxCell id="0z6euQ2ktUDiDJCqqF_y-49" value="Descrição" style="shape=partialRectangle;html=1;whiteSpace=wrap;connectable=1;strokeColor=inherit;overflow=hidden;fillColor=none;top=0;left=0;bottom=0;right=0;pointerEvents=1;fontSize=16;align=left;verticalAlign=top;movable=1;resizable=1;rotatable=1;deletable=1;editable=1;locked=0;" parent="0z6euQ2ktUDiDJCqqF_y-48" vertex="1">
          <mxGeometry width="200" height="167" as="geometry">
            <mxRectangle width="200" height="167" as="alternateBounds" />
          </mxGeometry>
        </mxCell>
        <mxCell id="0z6euQ2ktUDiDJCqqF_y-50" value="O cadastro de associados deverá ser feito através do armazenamento de suas informações básicas:&lt;br&gt;&lt;br&gt;&amp;nbsp;- Nome&lt;br&gt;&amp;nbsp;- Descrição&lt;br&gt;&amp;nbsp;- Imagem" style="shape=partialRectangle;html=1;whiteSpace=wrap;connectable=1;strokeColor=inherit;overflow=hidden;fillColor=none;top=0;left=0;bottom=0;right=0;pointerEvents=1;fontSize=16;align=left;verticalAlign=top;movable=1;resizable=1;rotatable=1;deletable=1;editable=1;locked=0;" parent="0z6euQ2ktUDiDJCqqF_y-48" vertex="1">
          <mxGeometry x="200" width="440" height="167" as="geometry">
            <mxRectangle width="440" height="167" as="alternateBounds" />
          </mxGeometry>
        </mxCell>
        <mxCell id="IRH-lNzjs5hs5iBJjP8A-17" value="" style="shape=table;startSize=0;container=1;collapsible=0;childLayout=tableLayout;fontSize=16;movable=1;resizable=1;rotatable=1;deletable=1;editable=1;locked=0;connectable=1;" parent="1" vertex="1">
          <mxGeometry x="760" y="40" width="640" height="720" as="geometry" />
        </mxCell>
        <mxCell id="IRH-lNzjs5hs5iBJjP8A-18" style="shape=tableRow;horizontal=0;startSize=0;swimlaneHead=0;swimlaneBody=0;strokeColor=inherit;top=0;left=0;bottom=0;right=0;collapsible=0;dropTarget=0;fillColor=none;points=[[0,0.5],[1,0.5]];portConstraint=eastwest;fontSize=16;movable=1;resizable=1;rotatable=1;deletable=1;editable=1;locked=0;connectable=1;" parent="IRH-lNzjs5hs5iBJjP8A-17" vertex="1">
          <mxGeometry width="640" height="64" as="geometry" />
        </mxCell>
        <mxCell id="IRH-lNzjs5hs5iBJjP8A-19" value="Versão" style="shape=partialRectangle;html=1;whiteSpace=wrap;connectable=1;strokeColor=inherit;overflow=hidden;fillColor=none;top=0;left=0;bottom=0;right=0;pointerEvents=1;fontSize=16;align=left;verticalAlign=top;movable=1;resizable=1;rotatable=1;deletable=1;editable=1;locked=0;" parent="IRH-lNzjs5hs5iBJjP8A-18" vertex="1">
          <mxGeometry width="200" height="64" as="geometry">
            <mxRectangle width="200" height="64" as="alternateBounds" />
          </mxGeometry>
        </mxCell>
        <mxCell id="IRH-lNzjs5hs5iBJjP8A-20" value="1.1" style="shape=partialRectangle;html=1;whiteSpace=wrap;connectable=1;strokeColor=inherit;overflow=hidden;fillColor=none;top=0;left=0;bottom=0;right=0;pointerEvents=1;fontSize=16;align=left;verticalAlign=top;movable=1;resizable=1;rotatable=1;deletable=1;editable=1;locked=0;" parent="IRH-lNzjs5hs5iBJjP8A-18" vertex="1">
          <mxGeometry x="200" width="440" height="64" as="geometry">
            <mxRectangle width="440" height="64" as="alternateBounds" />
          </mxGeometry>
        </mxCell>
        <mxCell id="IRH-lNzjs5hs5iBJjP8A-21" style="shape=tableRow;horizontal=0;startSize=0;swimlaneHead=0;swimlaneBody=0;strokeColor=inherit;top=0;left=0;bottom=0;right=0;collapsible=0;dropTarget=0;fillColor=none;points=[[0,0.5],[1,0.5]];portConstraint=eastwest;fontSize=16;movable=1;resizable=1;rotatable=1;deletable=1;editable=1;locked=0;connectable=1;" parent="IRH-lNzjs5hs5iBJjP8A-17" vertex="1">
          <mxGeometry y="64" width="640" height="63" as="geometry" />
        </mxCell>
        <mxCell id="IRH-lNzjs5hs5iBJjP8A-22" value="Identificador" style="shape=partialRectangle;html=1;whiteSpace=wrap;connectable=1;strokeColor=inherit;overflow=hidden;fillColor=none;top=0;left=0;bottom=0;right=0;pointerEvents=1;fontSize=16;align=left;verticalAlign=top;movable=1;resizable=1;rotatable=1;deletable=1;editable=1;locked=0;" parent="IRH-lNzjs5hs5iBJjP8A-21" vertex="1">
          <mxGeometry width="200" height="63" as="geometry">
            <mxRectangle width="200" height="63" as="alternateBounds" />
          </mxGeometry>
        </mxCell>
        <mxCell id="IRH-lNzjs5hs5iBJjP8A-23" value="RF004" style="shape=partialRectangle;html=1;whiteSpace=wrap;connectable=1;strokeColor=inherit;overflow=hidden;fillColor=none;top=0;left=0;bottom=0;right=0;pointerEvents=1;fontSize=16;align=left;verticalAlign=top;movable=1;resizable=1;rotatable=1;deletable=1;editable=1;locked=0;" parent="IRH-lNzjs5hs5iBJjP8A-21" vertex="1">
          <mxGeometry x="200" width="440" height="63" as="geometry">
            <mxRectangle width="440" height="63" as="alternateBounds" />
          </mxGeometry>
        </mxCell>
        <mxCell id="IRH-lNzjs5hs5iBJjP8A-24" style="shape=tableRow;horizontal=0;startSize=0;swimlaneHead=0;swimlaneBody=0;strokeColor=inherit;top=0;left=0;bottom=0;right=0;collapsible=0;dropTarget=0;fillColor=none;points=[[0,0.5],[1,0.5]];portConstraint=eastwest;fontSize=16;movable=1;resizable=1;rotatable=1;deletable=1;editable=1;locked=0;connectable=1;" parent="IRH-lNzjs5hs5iBJjP8A-17" vertex="1">
          <mxGeometry y="127" width="640" height="64" as="geometry" />
        </mxCell>
        <mxCell id="IRH-lNzjs5hs5iBJjP8A-25" value="Nome" style="shape=partialRectangle;html=1;whiteSpace=wrap;connectable=1;strokeColor=inherit;overflow=hidden;fillColor=none;top=0;left=0;bottom=0;right=0;pointerEvents=1;fontSize=16;align=left;verticalAlign=top;movable=1;resizable=1;rotatable=1;deletable=1;editable=1;locked=0;" parent="IRH-lNzjs5hs5iBJjP8A-24" vertex="1">
          <mxGeometry width="200" height="64" as="geometry">
            <mxRectangle width="200" height="64" as="alternateBounds" />
          </mxGeometry>
        </mxCell>
        <mxCell id="IRH-lNzjs5hs5iBJjP8A-26" value="Tela de Pedidos" style="shape=partialRectangle;html=1;whiteSpace=wrap;connectable=1;strokeColor=inherit;overflow=hidden;fillColor=none;top=0;left=0;bottom=0;right=0;pointerEvents=1;fontSize=16;align=left;verticalAlign=top;movable=1;resizable=1;rotatable=1;deletable=1;editable=1;locked=0;" parent="IRH-lNzjs5hs5iBJjP8A-24" vertex="1">
          <mxGeometry x="200" width="440" height="64" as="geometry">
            <mxRectangle width="440" height="64" as="alternateBounds" />
          </mxGeometry>
        </mxCell>
        <mxCell id="IRH-lNzjs5hs5iBJjP8A-27" style="shape=tableRow;horizontal=0;startSize=0;swimlaneHead=0;swimlaneBody=0;strokeColor=inherit;top=0;left=0;bottom=0;right=0;collapsible=0;dropTarget=0;fillColor=none;points=[[0,0.5],[1,0.5]];portConstraint=eastwest;fontSize=16;movable=1;resizable=1;rotatable=1;deletable=1;editable=1;locked=0;connectable=1;" parent="IRH-lNzjs5hs5iBJjP8A-17" vertex="1">
          <mxGeometry y="191" width="640" height="63" as="geometry" />
        </mxCell>
        <mxCell id="IRH-lNzjs5hs5iBJjP8A-28" value="Módulo" style="shape=partialRectangle;html=1;whiteSpace=wrap;connectable=1;strokeColor=inherit;overflow=hidden;fillColor=none;top=0;left=0;bottom=0;right=0;pointerEvents=1;fontSize=16;align=left;verticalAlign=top;movable=1;resizable=1;rotatable=1;deletable=1;editable=1;locked=0;" parent="IRH-lNzjs5hs5iBJjP8A-27" vertex="1">
          <mxGeometry width="200" height="63" as="geometry">
            <mxRectangle width="200" height="63" as="alternateBounds" />
          </mxGeometry>
        </mxCell>
        <mxCell id="IRH-lNzjs5hs5iBJjP8A-29" value="Pedido" style="shape=partialRectangle;html=1;whiteSpace=wrap;connectable=1;strokeColor=inherit;overflow=hidden;fillColor=none;top=0;left=0;bottom=0;right=0;pointerEvents=1;fontSize=16;align=left;verticalAlign=top;movable=1;resizable=1;rotatable=1;deletable=1;editable=1;locked=0;" parent="IRH-lNzjs5hs5iBJjP8A-27" vertex="1">
          <mxGeometry x="200" width="440" height="63" as="geometry">
            <mxRectangle width="440" height="63" as="alternateBounds" />
          </mxGeometry>
        </mxCell>
        <mxCell id="IRH-lNzjs5hs5iBJjP8A-30" style="shape=tableRow;horizontal=0;startSize=0;swimlaneHead=0;swimlaneBody=0;strokeColor=inherit;top=0;left=0;bottom=0;right=0;collapsible=0;dropTarget=0;fillColor=none;points=[[0,0.5],[1,0.5]];portConstraint=eastwest;fontSize=16;movable=1;resizable=1;rotatable=1;deletable=1;editable=1;locked=0;connectable=1;" parent="IRH-lNzjs5hs5iBJjP8A-17" vertex="1">
          <mxGeometry y="254" width="640" height="62" as="geometry" />
        </mxCell>
        <mxCell id="IRH-lNzjs5hs5iBJjP8A-31" value="Data da criação" style="shape=partialRectangle;html=1;whiteSpace=wrap;connectable=1;strokeColor=inherit;overflow=hidden;fillColor=none;top=0;left=0;bottom=0;right=0;pointerEvents=1;fontSize=16;align=left;verticalAlign=top;movable=1;resizable=1;rotatable=1;deletable=1;editable=1;locked=0;" parent="IRH-lNzjs5hs5iBJjP8A-30" vertex="1">
          <mxGeometry width="200" height="62" as="geometry">
            <mxRectangle width="200" height="62" as="alternateBounds" />
          </mxGeometry>
        </mxCell>
        <mxCell id="IRH-lNzjs5hs5iBJjP8A-32" value="11/09/2023" style="shape=partialRectangle;html=1;whiteSpace=wrap;connectable=1;strokeColor=inherit;overflow=hidden;fillColor=none;top=0;left=0;bottom=0;right=0;pointerEvents=1;fontSize=16;align=left;movable=1;resizable=1;rotatable=1;deletable=1;editable=1;locked=0;" parent="IRH-lNzjs5hs5iBJjP8A-30" vertex="1">
          <mxGeometry x="200" width="440" height="62" as="geometry">
            <mxRectangle width="440" height="62" as="alternateBounds" />
          </mxGeometry>
        </mxCell>
        <mxCell id="IRH-lNzjs5hs5iBJjP8A-33" value="" style="shape=tableRow;horizontal=0;startSize=0;swimlaneHead=0;swimlaneBody=0;strokeColor=inherit;top=0;left=0;bottom=0;right=0;collapsible=0;dropTarget=0;fillColor=none;points=[[0,0.5],[1,0.5]];portConstraint=eastwest;fontSize=16;movable=1;resizable=1;rotatable=1;deletable=1;editable=1;locked=0;connectable=1;" parent="IRH-lNzjs5hs5iBJjP8A-17" vertex="1">
          <mxGeometry y="316" width="640" height="64" as="geometry" />
        </mxCell>
        <mxCell id="IRH-lNzjs5hs5iBJjP8A-34" value="Data da última alteração" style="shape=partialRectangle;html=1;whiteSpace=wrap;connectable=1;strokeColor=inherit;overflow=hidden;fillColor=none;top=0;left=0;bottom=0;right=0;pointerEvents=1;fontSize=16;align=left;verticalAlign=top;movable=1;resizable=1;rotatable=1;deletable=1;editable=1;locked=0;" parent="IRH-lNzjs5hs5iBJjP8A-33" vertex="1">
          <mxGeometry width="200" height="64" as="geometry">
            <mxRectangle width="200" height="64" as="alternateBounds" />
          </mxGeometry>
        </mxCell>
        <mxCell id="IRH-lNzjs5hs5iBJjP8A-35" value="11/09/2023" style="shape=partialRectangle;html=1;whiteSpace=wrap;connectable=1;strokeColor=inherit;overflow=hidden;fillColor=none;top=0;left=0;bottom=0;right=0;pointerEvents=1;fontSize=16;movable=1;resizable=1;rotatable=1;deletable=1;editable=1;locked=0;align=left;" parent="IRH-lNzjs5hs5iBJjP8A-33" vertex="1">
          <mxGeometry x="200" width="440" height="64" as="geometry">
            <mxRectangle width="440" height="64" as="alternateBounds" />
          </mxGeometry>
        </mxCell>
        <mxCell id="IRH-lNzjs5hs5iBJjP8A-36" value="" style="shape=tableRow;horizontal=0;startSize=0;swimlaneHead=0;swimlaneBody=0;strokeColor=inherit;top=0;left=0;bottom=0;right=0;collapsible=0;dropTarget=0;fillColor=none;points=[[0,0.5],[1,0.5]];portConstraint=eastwest;fontSize=16;movable=1;resizable=1;rotatable=1;deletable=1;editable=1;locked=0;connectable=1;" parent="IRH-lNzjs5hs5iBJjP8A-17" vertex="1">
          <mxGeometry y="380" width="640" height="64" as="geometry" />
        </mxCell>
        <mxCell id="IRH-lNzjs5hs5iBJjP8A-37" value="Autor&amp;nbsp;" style="shape=partialRectangle;html=1;whiteSpace=wrap;connectable=1;strokeColor=inherit;overflow=hidden;fillColor=none;top=0;left=0;bottom=0;right=0;pointerEvents=1;fontSize=16;align=left;verticalAlign=top;movable=1;resizable=1;rotatable=1;deletable=1;editable=1;locked=0;" parent="IRH-lNzjs5hs5iBJjP8A-36" vertex="1">
          <mxGeometry width="200" height="64" as="geometry">
            <mxRectangle width="200" height="64" as="alternateBounds" />
          </mxGeometry>
        </mxCell>
        <mxCell id="IRH-lNzjs5hs5iBJjP8A-38" value="Luan Pacceli de moura" style="shape=partialRectangle;html=1;whiteSpace=wrap;connectable=1;strokeColor=inherit;overflow=hidden;fillColor=none;top=0;left=0;bottom=0;right=0;pointerEvents=1;fontSize=16;align=left;movable=1;resizable=1;rotatable=1;deletable=1;editable=1;locked=0;" parent="IRH-lNzjs5hs5iBJjP8A-36" vertex="1">
          <mxGeometry x="200" width="440" height="64" as="geometry">
            <mxRectangle width="440" height="64" as="alternateBounds" />
          </mxGeometry>
        </mxCell>
        <mxCell id="IRH-lNzjs5hs5iBJjP8A-39" value="" style="shape=tableRow;horizontal=0;startSize=0;swimlaneHead=0;swimlaneBody=0;strokeColor=inherit;top=0;left=0;bottom=0;right=0;collapsible=0;dropTarget=0;fillColor=none;points=[[0,0.5],[1,0.5]];portConstraint=eastwest;fontSize=16;movable=1;resizable=1;rotatable=1;deletable=1;editable=1;locked=0;connectable=1;" parent="IRH-lNzjs5hs5iBJjP8A-17" vertex="1">
          <mxGeometry y="444" width="640" height="276" as="geometry" />
        </mxCell>
        <mxCell id="IRH-lNzjs5hs5iBJjP8A-40" value="Descrição" style="shape=partialRectangle;html=1;whiteSpace=wrap;connectable=1;strokeColor=inherit;overflow=hidden;fillColor=none;top=0;left=0;bottom=0;right=0;pointerEvents=1;fontSize=16;align=left;verticalAlign=top;movable=1;resizable=1;rotatable=1;deletable=1;editable=1;locked=0;" parent="IRH-lNzjs5hs5iBJjP8A-39" vertex="1">
          <mxGeometry width="200" height="276" as="geometry">
            <mxRectangle width="200" height="276" as="alternateBounds" />
          </mxGeometry>
        </mxCell>
        <mxCell id="IRH-lNzjs5hs5iBJjP8A-41" value="O Pedido deverá ser feito através do preenchimento das informações do produto, após preenchimento deve ser feito a Verificação do pedido. Caso o cliente não tenha cadastro, deverá ser&amp;nbsp; feito o preenchimento das informações do cliente no cadastro rápido:&lt;br&gt;&amp;nbsp;- Nome do tipo de produto&lt;br&gt;&amp;nbsp;- Quantidade&lt;br&gt;&amp;nbsp;- Verificação do pedido&lt;br&gt;&amp;nbsp;- Nome do cliente&lt;br&gt;&amp;nbsp;- Endereço&lt;br&gt;&amp;nbsp;- CPF&lt;br&gt;&amp;nbsp;- Contato&lt;br&gt;&amp;nbsp;&lt;br&gt;:" style="shape=partialRectangle;html=1;whiteSpace=wrap;connectable=1;strokeColor=inherit;overflow=hidden;fillColor=none;top=0;left=0;bottom=0;right=0;pointerEvents=1;fontSize=16;align=left;verticalAlign=top;movable=1;resizable=1;rotatable=1;deletable=1;editable=1;locked=0;" parent="IRH-lNzjs5hs5iBJjP8A-39" vertex="1">
          <mxGeometry x="200" width="440" height="276" as="geometry">
            <mxRectangle width="440" height="276" as="alternateBounds" />
          </mxGeometry>
        </mxCell>
        <mxCell id="qxjpRmoGRHWyjpkuavoF-1" value="" style="shape=table;startSize=0;container=1;collapsible=0;childLayout=tableLayout;fontSize=16;movable=1;resizable=1;rotatable=1;deletable=1;editable=1;locked=0;connectable=1;" vertex="1" parent="1">
          <mxGeometry x="760" y="840" width="640" height="840" as="geometry" />
        </mxCell>
        <mxCell id="qxjpRmoGRHWyjpkuavoF-2" style="shape=tableRow;horizontal=0;startSize=0;swimlaneHead=0;swimlaneBody=0;strokeColor=inherit;top=0;left=0;bottom=0;right=0;collapsible=0;dropTarget=0;fillColor=none;points=[[0,0.5],[1,0.5]];portConstraint=eastwest;fontSize=16;movable=1;resizable=1;rotatable=1;deletable=1;editable=1;locked=0;connectable=1;" vertex="1" parent="qxjpRmoGRHWyjpkuavoF-1">
          <mxGeometry width="640" height="69" as="geometry" />
        </mxCell>
        <mxCell id="qxjpRmoGRHWyjpkuavoF-3" value="Versão" style="shape=partialRectangle;html=1;whiteSpace=wrap;connectable=1;strokeColor=inherit;overflow=hidden;fillColor=none;top=0;left=0;bottom=0;right=0;pointerEvents=1;fontSize=16;align=left;verticalAlign=top;movable=1;resizable=1;rotatable=1;deletable=1;editable=1;locked=0;" vertex="1" parent="qxjpRmoGRHWyjpkuavoF-2">
          <mxGeometry width="200" height="69" as="geometry">
            <mxRectangle width="200" height="69" as="alternateBounds" />
          </mxGeometry>
        </mxCell>
        <mxCell id="qxjpRmoGRHWyjpkuavoF-4" value="1" style="shape=partialRectangle;html=1;whiteSpace=wrap;connectable=1;strokeColor=inherit;overflow=hidden;fillColor=none;top=0;left=0;bottom=0;right=0;pointerEvents=1;fontSize=16;align=left;verticalAlign=top;movable=1;resizable=1;rotatable=1;deletable=1;editable=1;locked=0;" vertex="1" parent="qxjpRmoGRHWyjpkuavoF-2">
          <mxGeometry x="200" width="440" height="69" as="geometry">
            <mxRectangle width="440" height="69" as="alternateBounds" />
          </mxGeometry>
        </mxCell>
        <mxCell id="qxjpRmoGRHWyjpkuavoF-5" style="shape=tableRow;horizontal=0;startSize=0;swimlaneHead=0;swimlaneBody=0;strokeColor=inherit;top=0;left=0;bottom=0;right=0;collapsible=0;dropTarget=0;fillColor=none;points=[[0,0.5],[1,0.5]];portConstraint=eastwest;fontSize=16;movable=1;resizable=1;rotatable=1;deletable=1;editable=1;locked=0;connectable=1;" vertex="1" parent="qxjpRmoGRHWyjpkuavoF-1">
          <mxGeometry y="69" width="640" height="69" as="geometry" />
        </mxCell>
        <mxCell id="qxjpRmoGRHWyjpkuavoF-6" value="Identificador" style="shape=partialRectangle;html=1;whiteSpace=wrap;connectable=1;strokeColor=inherit;overflow=hidden;fillColor=none;top=0;left=0;bottom=0;right=0;pointerEvents=1;fontSize=16;align=left;verticalAlign=top;movable=1;resizable=1;rotatable=1;deletable=1;editable=1;locked=0;" vertex="1" parent="qxjpRmoGRHWyjpkuavoF-5">
          <mxGeometry width="200" height="69" as="geometry">
            <mxRectangle width="200" height="69" as="alternateBounds" />
          </mxGeometry>
        </mxCell>
        <mxCell id="qxjpRmoGRHWyjpkuavoF-7" value="RF005" style="shape=partialRectangle;html=1;whiteSpace=wrap;connectable=1;strokeColor=inherit;overflow=hidden;fillColor=none;top=0;left=0;bottom=0;right=0;pointerEvents=1;fontSize=16;align=left;verticalAlign=top;movable=1;resizable=1;rotatable=1;deletable=1;editable=1;locked=0;" vertex="1" parent="qxjpRmoGRHWyjpkuavoF-5">
          <mxGeometry x="200" width="440" height="69" as="geometry">
            <mxRectangle width="440" height="69" as="alternateBounds" />
          </mxGeometry>
        </mxCell>
        <mxCell id="qxjpRmoGRHWyjpkuavoF-8" style="shape=tableRow;horizontal=0;startSize=0;swimlaneHead=0;swimlaneBody=0;strokeColor=inherit;top=0;left=0;bottom=0;right=0;collapsible=0;dropTarget=0;fillColor=none;points=[[0,0.5],[1,0.5]];portConstraint=eastwest;fontSize=16;movable=1;resizable=1;rotatable=1;deletable=1;editable=1;locked=0;connectable=1;" vertex="1" parent="qxjpRmoGRHWyjpkuavoF-1">
          <mxGeometry y="138" width="640" height="69" as="geometry" />
        </mxCell>
        <mxCell id="qxjpRmoGRHWyjpkuavoF-9" value="Nome" style="shape=partialRectangle;html=1;whiteSpace=wrap;connectable=1;strokeColor=inherit;overflow=hidden;fillColor=none;top=0;left=0;bottom=0;right=0;pointerEvents=1;fontSize=16;align=left;verticalAlign=top;movable=1;resizable=1;rotatable=1;deletable=1;editable=1;locked=0;" vertex="1" parent="qxjpRmoGRHWyjpkuavoF-8">
          <mxGeometry width="200" height="69" as="geometry">
            <mxRectangle width="200" height="69" as="alternateBounds" />
          </mxGeometry>
        </mxCell>
        <mxCell id="qxjpRmoGRHWyjpkuavoF-10" value="Tela de Pagamentos" style="shape=partialRectangle;html=1;whiteSpace=wrap;connectable=1;strokeColor=inherit;overflow=hidden;fillColor=none;top=0;left=0;bottom=0;right=0;pointerEvents=1;fontSize=16;align=left;verticalAlign=top;movable=1;resizable=1;rotatable=1;deletable=1;editable=1;locked=0;" vertex="1" parent="qxjpRmoGRHWyjpkuavoF-8">
          <mxGeometry x="200" width="440" height="69" as="geometry">
            <mxRectangle width="440" height="69" as="alternateBounds" />
          </mxGeometry>
        </mxCell>
        <mxCell id="qxjpRmoGRHWyjpkuavoF-11" style="shape=tableRow;horizontal=0;startSize=0;swimlaneHead=0;swimlaneBody=0;strokeColor=inherit;top=0;left=0;bottom=0;right=0;collapsible=0;dropTarget=0;fillColor=none;points=[[0,0.5],[1,0.5]];portConstraint=eastwest;fontSize=16;movable=1;resizable=1;rotatable=1;deletable=1;editable=1;locked=0;connectable=1;" vertex="1" parent="qxjpRmoGRHWyjpkuavoF-1">
          <mxGeometry y="207" width="640" height="68" as="geometry" />
        </mxCell>
        <mxCell id="qxjpRmoGRHWyjpkuavoF-12" value="Módulo" style="shape=partialRectangle;html=1;whiteSpace=wrap;connectable=1;strokeColor=inherit;overflow=hidden;fillColor=none;top=0;left=0;bottom=0;right=0;pointerEvents=1;fontSize=16;align=left;verticalAlign=top;movable=1;resizable=1;rotatable=1;deletable=1;editable=1;locked=0;" vertex="1" parent="qxjpRmoGRHWyjpkuavoF-11">
          <mxGeometry width="200" height="68" as="geometry">
            <mxRectangle width="200" height="68" as="alternateBounds" />
          </mxGeometry>
        </mxCell>
        <mxCell id="qxjpRmoGRHWyjpkuavoF-13" value="Pagamento" style="shape=partialRectangle;html=1;whiteSpace=wrap;connectable=1;strokeColor=inherit;overflow=hidden;fillColor=none;top=0;left=0;bottom=0;right=0;pointerEvents=1;fontSize=16;align=left;verticalAlign=top;movable=1;resizable=1;rotatable=1;deletable=1;editable=1;locked=0;" vertex="1" parent="qxjpRmoGRHWyjpkuavoF-11">
          <mxGeometry x="200" width="440" height="68" as="geometry">
            <mxRectangle width="440" height="68" as="alternateBounds" />
          </mxGeometry>
        </mxCell>
        <mxCell id="qxjpRmoGRHWyjpkuavoF-14" style="shape=tableRow;horizontal=0;startSize=0;swimlaneHead=0;swimlaneBody=0;strokeColor=inherit;top=0;left=0;bottom=0;right=0;collapsible=0;dropTarget=0;fillColor=none;points=[[0,0.5],[1,0.5]];portConstraint=eastwest;fontSize=16;movable=1;resizable=1;rotatable=1;deletable=1;editable=1;locked=0;connectable=1;" vertex="1" parent="qxjpRmoGRHWyjpkuavoF-1">
          <mxGeometry y="275" width="640" height="67" as="geometry" />
        </mxCell>
        <mxCell id="qxjpRmoGRHWyjpkuavoF-15" value="Data da criação" style="shape=partialRectangle;html=1;whiteSpace=wrap;connectable=1;strokeColor=inherit;overflow=hidden;fillColor=none;top=0;left=0;bottom=0;right=0;pointerEvents=1;fontSize=16;align=left;verticalAlign=top;movable=1;resizable=1;rotatable=1;deletable=1;editable=1;locked=0;" vertex="1" parent="qxjpRmoGRHWyjpkuavoF-14">
          <mxGeometry width="200" height="67" as="geometry">
            <mxRectangle width="200" height="67" as="alternateBounds" />
          </mxGeometry>
        </mxCell>
        <mxCell id="qxjpRmoGRHWyjpkuavoF-16" value="27/09/023" style="shape=partialRectangle;html=1;whiteSpace=wrap;connectable=1;strokeColor=inherit;overflow=hidden;fillColor=none;top=0;left=0;bottom=0;right=0;pointerEvents=1;fontSize=16;align=left;movable=1;resizable=1;rotatable=1;deletable=1;editable=1;locked=0;" vertex="1" parent="qxjpRmoGRHWyjpkuavoF-14">
          <mxGeometry x="200" width="440" height="67" as="geometry">
            <mxRectangle width="440" height="67" as="alternateBounds" />
          </mxGeometry>
        </mxCell>
        <mxCell id="qxjpRmoGRHWyjpkuavoF-17" value="" style="shape=tableRow;horizontal=0;startSize=0;swimlaneHead=0;swimlaneBody=0;strokeColor=inherit;top=0;left=0;bottom=0;right=0;collapsible=0;dropTarget=0;fillColor=none;points=[[0,0.5],[1,0.5]];portConstraint=eastwest;fontSize=16;movable=1;resizable=1;rotatable=1;deletable=1;editable=1;locked=0;connectable=1;" vertex="1" parent="qxjpRmoGRHWyjpkuavoF-1">
          <mxGeometry y="342" width="640" height="70" as="geometry" />
        </mxCell>
        <mxCell id="qxjpRmoGRHWyjpkuavoF-18" value="Data da última alteração" style="shape=partialRectangle;html=1;whiteSpace=wrap;connectable=1;strokeColor=inherit;overflow=hidden;fillColor=none;top=0;left=0;bottom=0;right=0;pointerEvents=1;fontSize=16;align=left;verticalAlign=top;movable=1;resizable=1;rotatable=1;deletable=1;editable=1;locked=0;" vertex="1" parent="qxjpRmoGRHWyjpkuavoF-17">
          <mxGeometry width="200" height="70" as="geometry">
            <mxRectangle width="200" height="70" as="alternateBounds" />
          </mxGeometry>
        </mxCell>
        <mxCell id="qxjpRmoGRHWyjpkuavoF-19" value="27/09/2023" style="shape=partialRectangle;html=1;whiteSpace=wrap;connectable=1;strokeColor=inherit;overflow=hidden;fillColor=none;top=0;left=0;bottom=0;right=0;pointerEvents=1;fontSize=16;movable=1;resizable=1;rotatable=1;deletable=1;editable=1;locked=0;align=left;" vertex="1" parent="qxjpRmoGRHWyjpkuavoF-17">
          <mxGeometry x="200" width="440" height="70" as="geometry">
            <mxRectangle width="440" height="70" as="alternateBounds" />
          </mxGeometry>
        </mxCell>
        <mxCell id="qxjpRmoGRHWyjpkuavoF-20" value="" style="shape=tableRow;horizontal=0;startSize=0;swimlaneHead=0;swimlaneBody=0;strokeColor=inherit;top=0;left=0;bottom=0;right=0;collapsible=0;dropTarget=0;fillColor=none;points=[[0,0.5],[1,0.5]];portConstraint=eastwest;fontSize=16;movable=1;resizable=1;rotatable=1;deletable=1;editable=1;locked=0;connectable=1;" vertex="1" parent="qxjpRmoGRHWyjpkuavoF-1">
          <mxGeometry y="412" width="640" height="69" as="geometry" />
        </mxCell>
        <mxCell id="qxjpRmoGRHWyjpkuavoF-21" value="Autor&amp;nbsp;" style="shape=partialRectangle;html=1;whiteSpace=wrap;connectable=1;strokeColor=inherit;overflow=hidden;fillColor=none;top=0;left=0;bottom=0;right=0;pointerEvents=1;fontSize=16;align=left;verticalAlign=top;movable=1;resizable=1;rotatable=1;deletable=1;editable=1;locked=0;" vertex="1" parent="qxjpRmoGRHWyjpkuavoF-20">
          <mxGeometry width="200" height="69" as="geometry">
            <mxRectangle width="200" height="69" as="alternateBounds" />
          </mxGeometry>
        </mxCell>
        <mxCell id="qxjpRmoGRHWyjpkuavoF-22" value="Luan Pacceli de moura" style="shape=partialRectangle;html=1;whiteSpace=wrap;connectable=1;strokeColor=inherit;overflow=hidden;fillColor=none;top=0;left=0;bottom=0;right=0;pointerEvents=1;fontSize=16;align=left;movable=1;resizable=1;rotatable=1;deletable=1;editable=1;locked=0;" vertex="1" parent="qxjpRmoGRHWyjpkuavoF-20">
          <mxGeometry x="200" width="440" height="69" as="geometry">
            <mxRectangle width="440" height="69" as="alternateBounds" />
          </mxGeometry>
        </mxCell>
        <mxCell id="qxjpRmoGRHWyjpkuavoF-23" value="" style="shape=tableRow;horizontal=0;startSize=0;swimlaneHead=0;swimlaneBody=0;strokeColor=inherit;top=0;left=0;bottom=0;right=0;collapsible=0;dropTarget=0;fillColor=none;points=[[0,0.5],[1,0.5]];portConstraint=eastwest;fontSize=16;movable=1;resizable=1;rotatable=1;deletable=1;editable=1;locked=0;connectable=1;" vertex="1" parent="qxjpRmoGRHWyjpkuavoF-1">
          <mxGeometry y="481" width="640" height="359" as="geometry" />
        </mxCell>
        <mxCell id="qxjpRmoGRHWyjpkuavoF-24" value="Descrição" style="shape=partialRectangle;html=1;whiteSpace=wrap;connectable=1;strokeColor=inherit;overflow=hidden;fillColor=none;top=0;left=0;bottom=0;right=0;pointerEvents=1;fontSize=16;align=left;verticalAlign=top;movable=1;resizable=1;rotatable=1;deletable=1;editable=1;locked=0;" vertex="1" parent="qxjpRmoGRHWyjpkuavoF-23">
          <mxGeometry width="200" height="359" as="geometry">
            <mxRectangle width="200" height="359" as="alternateBounds" />
          </mxGeometry>
        </mxCell>
        <mxCell id="qxjpRmoGRHWyjpkuavoF-25" value="O Pagamento deverá ser feito através da escolha da forma de pagamento e o preenchimento das informações:&amp;nbsp;&lt;br&gt;Pagamento via pix:&lt;br&gt;&amp;nbsp;- chave pix(auto preenchida)&lt;br&gt;&amp;nbsp;- Validação do pagamento e Botão Finalizar&lt;br&gt;Pagamento em dinheiro:&lt;br&gt;&amp;nbsp;- valor total(auto preenchido)&lt;br&gt;&amp;nbsp;- Troco para R$&lt;br&gt;&amp;nbsp;- Valor do troco(auto preenchido)&lt;br&gt;&amp;nbsp;- Botão Finalizar&lt;br&gt;Pagamento em Cartão:&lt;br&gt;- Bandeira&lt;br style=&quot;border-color: var(--border-color);&quot;&gt;&amp;nbsp;- Numero do Cartão&amp;nbsp;&lt;br style=&quot;border-color: var(--border-color);&quot;&gt;&amp;nbsp;- Nome igual do cartão&lt;br style=&quot;border-color: var(--border-color);&quot;&gt;&amp;nbsp;- Data de validade&lt;br&gt;&amp;nbsp;- Código de segurança&amp;nbsp;&lt;br&gt;&amp;nbsp;&lt;br&gt;:" style="shape=partialRectangle;html=1;whiteSpace=wrap;connectable=1;strokeColor=inherit;overflow=hidden;fillColor=none;top=0;left=0;bottom=0;right=0;pointerEvents=1;fontSize=16;align=left;verticalAlign=top;movable=1;resizable=1;rotatable=1;deletable=1;editable=1;locked=0;" vertex="1" parent="qxjpRmoGRHWyjpkuavoF-23">
          <mxGeometry x="200" width="440" height="359" as="geometry">
            <mxRectangle width="440" height="359" as="alternateBounds" />
          </mxGeometry>
        </mxCell>
      </root>
    </mxGraphModel>
  </diagram>
</mxfile>
